<svg xmlns="http://www.w3.org/2000/svg" width="30.356" height="23.207" viewBox="0 0 30.356 23.207">
  <path id="Path_10322" data-name="Path 10322" d="M28.382,49.892a5.54,5.54,0,0,0-4.4-1.691,7.476,7.476,0,0,0-4.5,2.584A7.5,7.5,0,0,0,14.979,48.2a5.54,5.54,0,0,0-4.4,1.691,5.173,5.173,0,0,0-1.691,3.287A5.865,5.865,0,0,0,5.649,52.1,5.711,5.711,0,0,0,1.741,53.83,5.41,5.41,0,0,0,.086,58.761C.73,63.307,6,68.924,10.379,71.124a.591.591,0,0,0,.532,0,22.81,22.81,0,0,0,6.362-5.108A17.068,17.068,0,0,0,19.218,67.2a.591.591,0,0,0,.532,0C24.1,65,29.4,59.37,30.038,54.823A5.41,5.41,0,0,0,28.382,49.892ZM10.645,69.935C6.607,67.777,1.836,62.692,1.256,58.6a4.221,4.221,0,0,1,1.289-3.9,4.576,4.576,0,0,1,3.1-1.4c2.536,0,4.493,2.672,4.511,2.7a.586.586,0,0,0,.958,0s1.969-2.7,4.535-2.7a4.576,4.576,0,0,1,3.1,1.4,4.221,4.221,0,0,1,1.295,3.9C19.455,62.692,14.683,67.777,10.645,69.935ZM28.867,54.658c-.591,4.091-5.321,9.182-9.389,11.334a16.486,16.486,0,0,1-1.46-.887,14.08,14.08,0,0,0,3.163-6.344,5.41,5.41,0,0,0-1.655-4.931,5.711,5.711,0,0,0-3.873-1.715c-2.335,0-4.139,1.685-4.99,2.607a6.182,6.182,0,0,0-.591-.591,4.139,4.139,0,0,1,1.336-3.352A4.434,4.434,0,0,1,14.878,49.4c2.365.236,4.139,2.661,4.139,2.684a.586.586,0,0,0,.958,0s1.774-2.442,4.139-2.678a4.428,4.428,0,0,1,3.476,1.384A4.221,4.221,0,0,1,28.867,54.658Z" transform="translate(0.116 -48.084)" fill="#fff" stroke="#fff" stroke-width="0.2"/>
</svg>
